<svg width="670" height="670" viewBox="0 0 670 670" fill="none" xmlns="http://www.w3.org/2000/svg">
<g clip-path="url(#clip0_32_46)">
<path fill-rule="evenodd" clip-rule="evenodd" d="M134.818 94.3283C145.529 93.6593 160.924 94.2244 171.946 94.1974C181.83 94.1744 200.281 93.6076 209.376 94.7726C224.091 96.5396 237.441 104.258 246.313 116.131C253.627 125.816 258.028 139.668 257.078 151.777C256.595 157.939 255.131 165.131 254.274 171.384C265.884 171.932 280.28 171.63 292.052 171.634L626.403 171.655C637.732 171.655 649.264 171.367 660.595 171.802C662.798 171.887 665.787 173.698 667.367 175.178C672.781 180.249 669.951 187.434 667.426 193.167C663.123 203.002 658.693 212.608 654.302 222.318L621.022 294.979C615.813 306.401 581.239 385.482 576.464 390.416C574.228 392.728 570.378 393.689 567.292 393.97C555.589 395.036 543.088 394.156 531.309 394.166L223.006 394.117C221.863 405.842 218.331 418.569 219.302 430.301C220.386 443.39 228.821 453.815 241.119 458.239C252.331 462.273 294.932 460.39 309.842 460.395L516.897 460.525C523.893 460.535 530.95 460.384 537.932 460.352C543.864 460.324 549.753 465.35 549.886 471.627C549.953 474.241 548.964 476.774 547.141 478.649C543.19 482.768 537.753 482.813 532.446 482.766C524.16 482.693 515.871 482.703 507.584 482.679C541.625 516.665 519.94 574.899 470.84 576.168C456.182 576.532 441.997 570.975 431.486 560.751C409.165 539.176 410.543 504.485 431.852 482.707L298.026 482.632C305.538 490.108 310.183 497.383 312.925 507.763C316.728 521.821 314.636 536.822 307.132 549.303C298.836 563.293 286.697 571.233 271.171 575.108C264.693 576.231 259.097 576.628 252.525 575.74C238.305 573.794 225.422 566.327 216.667 554.955C207.797 543.271 204.011 528.505 206.163 513.994C208.634 497.412 216.435 486.804 229.55 477.07C188.377 456.643 196.161 425.8 201.551 388.181L115.197 388.229C102.556 388.21 89.7975 388.177 77.1625 388.275C72.7955 388.221 68.286 385.579 68.352 380.784C68.501 370.039 81.2286 372.225 88.3266 372.267L112.768 372.393C143.126 372.294 173.484 372.369 203.839 372.619C205.775 361.124 207.188 349.129 208.979 337.53L31.5961 337.552C23.7503 337.574 15.9142 337.742 8.04631 337.315C2.37157 337.005 -1.42751 331.648 0.512134 326.232C1.61913 323.14 6.39566 321.171 9.44866 321.191C58.1686 321.516 106.916 321.25 155.646 321.383C174.133 321.434 192.689 321.526 211.171 321.284C212.986 310.812 214.393 298.123 215.956 287.377C182.989 286.515 146.726 287.2 113.487 287.183L87.1733 287.167C79.9321 287.162 64.3325 289.613 63.7475 279.43C63.6246 277.323 64.3928 275.262 65.8647 273.749C67.3466 272.21 70.5132 271.241 72.5531 271.284C86.6381 271.585 100.862 271.606 114.937 271.607L218.193 271.697L222.854 237.856L128.805 237.87C125.868 237.87 121.906 237.805 118.994 237.88C108.271 238.158 106.661 222.748 117.212 222.328C128.938 221.861 141.071 222.138 152.897 222.156L225.555 222.145C226.158 212.97 228.418 198.551 229.827 189.299C217.661 189.142 205.175 189.485 192.942 189.475L61.4848 189.364C55.919 189.349 41.9755 190.435 38.103 187.068C36.5051 185.665 35.5828 183.644 35.5717 181.517C35.5677 176.697 39.3649 173.435 44.0629 173.366C49.8567 173.282 55.5906 173.497 61.3764 173.518L100.147 173.62L231.788 173.666C233.45 162.777 236.462 150.223 233.515 139.772C226.459 114.744 204.023 114.666 182.511 115.483C171.484 115.901 159.724 115.167 148.609 115.397C137.359 115.63 129.086 117.669 126.199 104.499C127.515 98.3703 129.041 96.5863 134.818 94.3283ZM259.807 491.096C248.696 491.195 238.495 497.258 233.099 506.972C227.704 516.686 227.946 528.549 233.733 538.035C239.521 547.52 249.96 553.163 261.066 552.809C277.965 552.269 291.284 538.233 290.939 521.329C290.594 504.426 276.714 490.946 259.807 491.096ZM500.009 516.53C496.986 499.762 480.924 488.632 464.162 491.69C447.45 494.739 436.36 510.741 439.374 527.46C442.388 544.179 458.367 555.301 475.091 552.323C491.867 549.337 503.031 533.299 500.009 516.53ZM386.821 372.185L440.898 372.201C445.295 372.212 462.63 372.578 466.05 372.02L502.808 293.996L456.044 293.843C445.718 293.857 434.017 294.215 423.806 293.67L386.821 372.185ZM300.129 293.816C280.495 293.697 256.167 293.188 236.994 293.87C235.352 309.125 232.786 325.366 230.622 340.619C229.163 350.9 227.916 362.058 226.309 372.184L262.513 372.242C265.548 366.53 268.154 360.844 270.881 354.985C280.091 334.577 291.057 314.176 300.129 293.816ZM401.458 294.113C376.089 293.255 347.605 293.916 322.027 293.855L298.947 342.593C295.056 350.803 288.956 364.443 284.637 372.154L364.804 372.234C376.722 346.194 389.782 320.163 401.458 294.113ZM524.552 293.777C512.584 320 499.684 346.061 487.803 372.218L561.422 372.199C573.348 346.445 584.918 319.625 597.287 294.171C573.265 293.483 548.661 294.02 524.552 293.777ZM251.478 193.191C249.422 209.035 247.269 224.867 245.018 240.685C243.658 250.301 241.734 264.321 239.669 273.822C261.122 274.768 287.632 274.159 309.428 274.025L337.479 215.101C340.492 208.747 345.132 199.56 347.623 193.231L251.478 193.191ZM533.872 274.189L606.197 274.213C608.097 271.63 616.915 251.149 618.884 246.741C626.733 229.179 635.508 211.338 642.913 193.656C619.372 192.751 595.182 193.948 571.732 193.204L533.872 274.189ZM341.461 253.278C338.42 259.85 334.466 267.675 331.74 274.157L411.16 274.191C423.017 247.828 437.896 219.334 448.875 193.257C422.733 193.143 395.511 193.672 369.529 193.091L341.461 253.278ZM549.887 193.357C524.755 192.848 496.176 192.997 470.976 193.31C459.254 220.082 445.085 247.29 433.181 274.114L511.886 274.171C519.513 257.535 527.251 240.95 535.1 224.418C539.7 214.859 545.802 202.995 549.887 193.357Z" fill="black"/>
</g>
<defs>
<clipPath id="clip0_32_46">
<rect width="670" height="670" fill="white"/>
</clipPath>
</defs>
</svg>
